<svg id="Calque_1" data-name="Calque 1" xmlns="http://www.w3.org/2000/svg" viewBox="0 0 278 284.34"><defs><style>.cls-1{fill:none;stroke:#1e1e1e;stroke-linecap:round;stroke-linejoin:round;stroke-width:2.5px;}.cls-2{fill:#3c3c3b;}</style></defs><path class="cls-1" d="M358.5,325.5" transform="translate(-60 -51)"/><path class="cls-1" d="M435.5,273.5" transform="translate(-60 -51)"/><path class="cls-2" d="M288.62,181.63H307.1c-5.26-52.18-45.81-93.65-96.82-99v18.91a88.89,88.89,0,0,1,52.58,26.34A92.53,92.53,0,0,1,288.62,181.63Z" transform="translate(-60 -51)"/><path class="cls-2" d="M199,204.71a10.94,10.94,0,0,1-8-3.38A11.73,11.73,0,0,1,191,185a11.11,11.11,0,0,1,16,0,11.73,11.73,0,0,1,0,16.33A10.94,10.94,0,0,1,199,204.71Z" transform="translate(-60 -51)"/><rect class="cls-2" y="139.01" width="106.69" height="6.31"/><rect class="cls-2" x="171.31" y="139.01" width="106.69" height="6.31"/><rect class="cls-2" x="135.92" width="6.17" height="109.12"/><rect class="cls-2" x="135.92" y="175.11" width="6.17" height="109.23"/><path class="cls-2" d="M288.62,204.7a92.47,92.47,0,0,1-25.76,53.78,88.9,88.9,0,0,1-52.58,26.35v18.9c51-5.38,91.56-46.85,96.82-99Z" transform="translate(-60 -51)"/><path class="cls-2" d="M90.9,181.63h18.48a92.53,92.53,0,0,1,25.76-53.78,88.89,88.89,0,0,1,52.58-26.34V82.6C136.7,88,96.16,129.45,90.9,181.63Z" transform="translate(-60 -51)"/><path class="cls-2" d="M109.38,204.7H90.9c5.26,52.18,45.8,93.66,96.82,99V284.83a88.9,88.9,0,0,1-52.58-26.35A92.47,92.47,0,0,1,109.38,204.7Z" transform="translate(-60 -51)"/></svg>