<svg id="Calque_1" data-name="Calque 1" xmlns="http://www.w3.org/2000/svg" viewBox="0 0 291.54 253.78"><defs><style>.cls-1{fill:none;stroke:#1e1e1e;stroke-linecap:round;stroke-linejoin:round;stroke-width:2.5px;}</style></defs><path class="cls-1" d="M358.5,325.5" transform="translate(-66.71 -53.35)"/><path class="cls-1" d="M435.5,273.5" transform="translate(-66.71 -53.35)"/><path class="cls-1" d="M264.71,162.1s42.72,10.36,50.59,16c17.05,12.25,26,47.47,28.65,67.22,2.23,16.42,13.05,34.46,13.05,34.46" transform="translate(-66.71 -53.35)"/><path class="cls-1" d="M296.82,204.31c-12-10.31-21.41-8.63-30.15-15.12-17-12.63-15.47-11.76-31.07-23.22-9.27-6.8-15.46-10.7-22.93-4.11-6.27,5.54-4.73,11.37-.22,18.41,5.5,8.59,32.05,34.87,37.73,41.1a10,10,0,0,1,2.43,4.73c2,9.61,8.37,36.77,47.05,42" transform="translate(-66.71 -53.35)"/><path class="cls-1" d="M264.6,283.67C275.7,287,280.78,298,280.78,298" transform="translate(-66.71 -53.35)"/><line class="cls-1" x1="55.58" y1="59.91" x2="149.22" y2="59.91"/><path class="cls-1" d="M245.53,216.48v78.64a10.78,10.78,0,0,1-10.77,10.77h-156A10.77,10.77,0,0,1,68,295.12V93.54a10.76,10.76,0,0,1,3.15-7.61L99.28,57.76a10.78,10.78,0,0,1,7.62-3.16H234.76a10.77,10.77,0,0,1,10.77,10.77v108" transform="translate(-66.71 -53.35)"/><line class="cls-1" x1="55.58" y1="97.61" x2="120.96" y2="97.61"/><path class="cls-1" d="M70.36,89.08h30a4.57,4.57,0,0,0,4.57-4.57V73.38" transform="translate(-66.71 -53.35)"/><line class="cls-1" x1="55.58" y1="78.76" x2="149.22" y2="78.76"/><line class="cls-1" x1="30.84" y1="59.91" x2="36.15" y2="59.91"/><line class="cls-1" x1="30.84" y1="97.61" x2="36.15" y2="97.61"/><line class="cls-1" x1="30.84" y1="78.76" x2="36.15" y2="78.76"/><path class="cls-1" d="M210.83,258.26l-43.15-43.15a33.44,33.44,0,0,0-45-39.58l18.29,18.29-1.15,17.05-17,1.15-18.29-18.29a33.44,33.44,0,0,0,39.58,45l43.15,43.15a16.73,16.73,0,1,0,23.66-23.66Z" transform="translate(-66.71 -53.35)"/><line class="cls-1" x1="131.31" y1="215.75" x2="129.18" y2="213.62"/></svg>